Coordinates
version=1
nRows=13
nColumns=36
inDegrees=yes

Units are S.I. units (second, meters, Newtons, ...)
If the header above contains a line with 'inDegrees', this indicates whether rotational values are in degrees (yes) or radians (no).

endheader
time	pelvis_tilt	pelvis_list	pelvis_rotation	pelvis_tx	pelvis_ty	pelvis_tz	hip_flexion_r	hip_adduction_r	hip_rotation_r	knee_angle_r	knee_angle_r_beta	ankle_angle_r	subtalar_angle_r	mtp_angle_r	hip_flexion_l	hip_adduction_l	hip_rotation_l	knee_angle_l	knee_angle_l_beta	ankle_angle_l	subtalar_angle_l	mtp_angle_l	lumbar_extension	lumbar_bending	lumbar_rotation	arm_flex_r	arm_add_r	arm_rot_r	elbow_flex_r	pro_sup_r	arm_flex_l	arm_add_l	arm_rot_l	elbow_flex_l	pro_sup_l
     44.68333330	     -5.99261864	     -1.53620532	      2.20891187	      0.60270685	      0.78065480	      0.68421225	     41.89545601	     -1.10060552	     -4.79899308	     25.40693780	      0.44343472	      4.20815075	     -7.00427491	     -7.49999987	     -8.56283602	     -0.28794560	     -2.11288702	     16.91610051	      0.29524165	     25.50768345	      4.11604954	     -7.49999987	     -1.72757171	      4.40438470	     -9.87991505	      0.72290495	    -11.44729154	     -3.01887589	     10.06822920	     95.35004504	     10.97442631	    -15.58961563	      5.96672478	     23.27147503	     94.32712333
     44.70000000	     -5.64812978	     -1.66292455	      1.92218188	      0.60672876	      0.77901377	      0.68578336	     41.59952120	     -0.60554568	     -4.95934796	     27.87195921	      0.48645746	      3.37136196	     -8.19429868	     -7.49999987	     -8.80123097	     -0.57874054	     -3.52066947	     18.74484481	      0.32715926	     23.94976946	      4.65788535	     -7.49999987	     -2.28034276	      4.53225828	     -8.97594996	      0.18426482	    -11.94962326	     -2.08276070	     10.53949811	     96.09866042	     10.94356655	    -15.28314666	      6.33269042	     22.60554496	     94.94731448
     44.71666670	     -5.41130773	     -1.89849431	      1.63570969	      0.61194126	      0.77913615	      0.68808705	     41.18911351	      0.03338587	     -5.06249570	     30.24005373	      0.52778850	      3.40417464	     -8.88320550	     -7.49999987	     -8.18349395	     -1.15015000	     -5.00661816	     21.79725915	      0.38043394	     21.78222064	      4.80177088	     -7.49999987	     -2.65526025	      4.77772031	     -8.20311252	     -0.37170426	    -12.57886993	     -0.33637491	     10.82260776	     96.42004582	     10.80797548	    -14.95713239	      7.32927160	     21.11337319	     95.33905409
     44.73333330	     -5.14144871	     -2.21785042	      1.46827225	      0.61702256	      0.78287951	      0.69076663	     40.43862902	      0.74307160	     -5.07696090	     32.43989942	      0.56618305	      3.96625213	     -9.47293077	     -7.49999987	     -6.98203584	     -1.96616395	     -6.24248526	     25.86419370	      0.45141534	     18.80579178	      4.54558824	     -7.49999987	     -3.02070774	      5.11698383	     -7.62687840	     -0.71564754	    -13.06513445	     -0.14207914	     10.74410580	     96.57357473	     10.08972604	    -14.62183994	      7.41623415	     20.39892077	     95.53699475
     44.75000000	     -4.95500548	     -2.66924996	      1.33715636	      0.62085807	      0.78963320	      0.69340736	     39.27401182	      1.60478773	     -5.05846430	     33.90784129	      0.59180347	      4.81282177	     -9.95360847	     -7.49999987	     -5.03027200	     -3.08996334	     -7.34965252	     30.94996498	      0.54017879	     14.90014053	      3.88132834	     -7.49999987	     -2.99472213	      5.63276953	     -6.92832351	     -1.07990996	    -13.66743936	      1.37766158	     10.74921798	     96.37837564	      9.70151648	    -13.97928095	      8.24519287	     18.34649080	     95.61709875
     44.76666670	     -4.86666538	     -3.22531433	      1.32697109	      0.62229213	      0.79711373	      0.69614247	     37.70105546	      2.54385446	     -5.10630928	     34.34897612	      0.59950273	      5.69913919	    -10.25021613	     -7.49999987	     -1.73916028	     -4.66312557	     -8.09198388	     37.66633531	      0.65740157	     11.07018292	      3.06419711	     -7.49999987	     -2.84134370	      6.16227672	     -6.38138564	     -1.22614641	    -14.01291326	      2.02857557	     10.73876255	     95.63806965	      9.10109923	    -13.46138743	      9.17021607	     16.92332738	     95.31695958
     44.78333330	     -5.12174228	     -3.59144184	      1.39107066	      0.62111501	      0.80292927	      0.69934508	     36.18067276	      3.18955951	     -5.19245116	     33.97383963	      0.59295536	      6.49686835	    -10.21082775	     -7.49999987	      3.26309245	     -6.15957778	     -7.97829929	     45.36179019	      0.79171259	      8.64705066	      1.73420896	     -7.49999987	     -2.43754417	      6.46099755	     -5.83514147	     -1.21513653	    -14.25001013	      2.09258029	     10.85136743	     92.96859453	      8.54183784	    -12.84830470	      9.34065712	     15.79713683	     92.83318666
     44.80000000	     -6.35272619	     -3.60247271	      1.45337065	      0.61845366	      0.80550734	      0.70439032	     35.71236189	      3.38106750	     -5.33260130	     33.38014392	      0.58259342	      7.32826645	     -9.60266241	     -7.49999987	      9.89161721	     -7.03257228	     -7.05378321	     52.60011703	      0.91804523	      8.71685115	      0.16144637	     -7.49999987	     -0.81179152	      6.24536174	     -5.18859302	     -1.67378336	    -14.48017579	      2.46193186	     11.56128053	     91.97752413	      8.09141159	    -12.40270028	     10.51884539	     14.23275733	     92.23547293
     44.81666670	     -7.55844967	     -3.49440757	      1.54179722	      0.61534294	      0.80607730	      0.71116210	     35.28766958	      3.54361810	     -5.30524657	     32.61811831	      0.56929356	      7.47661458	     -9.85742077	     -7.49999987	     16.00588797	     -7.47309845	     -5.95433381	     58.20845528	      1.01592920	     10.87431594	     -0.98871517	     -7.49999987	      0.64763528	      5.85593343	     -4.63324069	     -1.70479038	    -14.54974528	      2.30596960	     11.98912911	     92.24192467	      7.56874243	    -12.21215743	     11.16470765	     13.43664993	     92.84650709
     44.83333330	     -7.99012507	     -3.49628421	      1.80494038	      0.61365003	      0.80557065	      0.71668655	     34.00858694	      3.77210894	     -5.62482502	     31.68313455	      0.55297502	      7.83575146	    -10.00037429	     -7.49999987	     20.09072008	     -7.77833261	     -4.98774494	     61.73857165	      1.07754135	     13.30922201	     -2.01389435	     -7.49999987	      1.12678361	      5.57752096	     -4.28930316	     -1.31017283	    -14.61369346	      2.16197236	     12.25996245	     92.31335470	      7.19111774	    -11.97026178	     11.20060072	     12.86907952	     93.02317125
     44.85000000	     -9.29357165	     -3.43011658	      1.83875430	      0.61414445	      0.80328820	      0.71928358	     33.79400080	      4.03673299	     -5.54960862	     30.99672380	      0.54099489	      8.53255729	    -10.15375283	     -7.49999987	     23.81126402	     -7.82711966	     -4.47268752	     63.86332240	      1.11462525	     15.16130746	     -2.61229008	     -7.49999987	      3.28292372	      5.16491028	     -3.97172623	     -0.96205497	    -14.46090907	      1.80238485	     12.33782018	     92.35355650	      6.50437518	    -11.67680280	     10.96134688	     11.50336052	     93.27922899
     44.86666670	     -9.38570598	     -3.36628569	      1.84138674	      0.61495809	      0.80356510	      0.71945676	     32.16953597	      4.38073397	     -5.24426307	     30.24578262	      0.52788849	      9.67274718	    -10.28396016	     -7.49999987	     25.08215312	     -7.81247553	     -4.43539944	     64.80668079	      1.13108996	     15.95484488	     -3.35734708	     -7.49999987	      3.68092461	      4.83395924	     -3.40182338	     -0.28963197	    -14.46160874	      1.76802754	     12.71665547	     92.26813154	      5.92293967	    -11.51699696	     10.92851703	     11.28825532	     93.21171067
     44.88333330	     -9.46566594	     -3.99287100	      1.91627791	      0.61471901	      0.80510866	      0.71874479	     30.21229963	      5.27143611	     -5.36449375	     29.05111218	      0.50703756	     11.14198763	     -9.63087770	     -7.49999987	     26.04078880	     -8.29873398	     -4.18913195	     65.58283375	      1.14463638	     16.04650347	     -4.28122293	     -7.49999987	      4.45049245	      5.53600757	     -3.18195821	      0.61830105	    -14.86092493	      1.60979446	     12.68452172	     91.97894819	      5.49067239	    -10.71139296	     10.18799350	      9.47450723	     92.96251261
